<svg xmlns="http://www.w3.org/2000/svg" viewBox="0 0 600 600" width="600" height="600"><defs><linearGradient id="bg" x1="0" y1="0" x2="1" y2="1"><stop offset="0" stop-color="#fffbeb"/><stop offset="1" stop-color="#fef3c7"/></linearGradient></defs><rect width="600" height="600" fill="url(#bg)"/><ellipse cx="300" cy="528" rx="150" ry="16" fill="#0f172a" opacity=".12"/><path d="M130 305 Q130 150 300 150 Q470 150 470 305 Z" fill="#e0a458" stroke="#b9792d" stroke-width="5"/><g fill="#fff3d6"><ellipse cx="230" cy="210" rx="12" ry="6" transform="rotate(-20 230 210)"/><ellipse cx="300" cy="185" rx="12" ry="6" transform="rotate(0 300 185)"/><ellipse cx="370" cy="210" rx="12" ry="6" transform="rotate(20 370 210)"/><ellipse cx="265" cy="255" rx="12" ry="6" transform="rotate(-10 265 255)"/><ellipse cx="335" cy="255" rx="12" ry="6" transform="rotate(10 335 255)"/></g><path d="M120 305 Q150 335 180 305 Q215 335 250 305 Q285 335 320 305 Q355 335 390 305 Q425 335 480 305 L480 322 L120 322 Z" fill="#65a30d"/><rect x="125" y="322" width="350" height="44" rx="22" fill="#7c2d12"/><path d="M115 366 L485 366 L455 412 L330 394 L300 420 L270 394 L145 412 Z" fill="#fbbf24"/><rect x="120" y="402" width="360" height="26" rx="13" fill="#ef4444"/><path d="M130 428 L470 428 Q470 495 400 495 L200 495 Q130 495 130 428 Z" fill="#e0a458" stroke="#b9792d" stroke-width="5"/></svg>