<svg xmlns="http://www.w3.org/2000/svg" viewBox="0 0 600 600" width="600" height="600"><defs><linearGradient id="bg" x1="0" y1="0" x2="1" y2="1"><stop offset="0" stop-color="#fffbeb"/><stop offset="1" stop-color="#fef3c7"/></linearGradient></defs><rect width="600" height="600" fill="url(#bg)"/><ellipse cx="300" cy="528" rx="150" ry="16" fill="#0f172a" opacity=".12"/><path d="M200 150 L400 150 L370 500 Q368 520 348 520 L252 520 Q232 520 230 500 Z" fill="#fff" fill-opacity=".6" stroke="#a16207" stroke-width="6"/><path d="M208 240 L392 240 L370 500 Q368 520 348 520 L252 520 Q232 520 230 500 Z" fill="#7c4a1d"/><path d="M208 240 L392 240 L388 290 L212 290 Z" fill="#fde7c0"/><rect x="262" y="320" width="56" height="56" rx="10" fill="#fff" opacity=".35" transform="rotate(14 290 348)"/><rect x="318" y="380" width="56" height="56" rx="10" fill="#fff" opacity=".3" transform="rotate(-10 346 408)"/><rect x="285" y="60" width="18" height="320" rx="9" fill="#10b981" transform="rotate(14 294 220)"/><rect x="188" y="136" width="224" height="22" rx="10" fill="#fef3c7" stroke="#a16207" stroke-width="4"/></svg>