<svg xmlns="http://www.w3.org/2000/svg" viewBox="0 0 600 600" width="600" height="600"><defs><linearGradient id="bg" x1="0" y1="0" x2="1" y2="1"><stop offset="0" stop-color="#eff6ff"/><stop offset="1" stop-color="#dbeafe"/></linearGradient></defs><rect width="600" height="600" fill="url(#bg)"/><ellipse cx="300" cy="528" rx="150" ry="16" fill="#0f172a" opacity=".12"/><rect x="248" y="295" width="104" height="210" rx="16" fill="#1e293b"/><rect x="248" y="281" width="104" height="26" rx="10" fill="#059669"/><rect x="260" y="370" width="80" height="60" rx="8" fill="#fff" opacity=".95"/><text x="300" y="406" font-family="Arial,Helvetica,sans-serif" font-weight="800" font-size="20" text-anchor="middle" fill="#0f172a">PADEL</text><rect x="260" y="305" width="10" height="190" rx="5" fill="#fff" opacity=".12"/><circle cx="150" cy="495" r="42" fill="#a3e635"/><path d="M120 466 C146 485 146 505 120 524" fill="none" stroke="#fff" stroke-width="3" stroke-linecap="round"/><path d="M180 466 C154 485 154 505 180 524" fill="none" stroke="#fff" stroke-width="3" stroke-linecap="round"/><circle cx="150" cy="495" r="42" fill="none" stroke="#0f172a" stroke-opacity=".12" stroke-width="3"/><circle cx="455" cy="490" r="46" fill="#a3e635"/><path d="M422 458 C450 478 450 502 422 522" fill="none" stroke="#fff" stroke-width="3" stroke-linecap="round"/><path d="M488 458 C460 478 460 502 488 522" fill="none" stroke="#fff" stroke-width="3" stroke-linecap="round"/><circle cx="455" cy="490" r="46" fill="none" stroke="#0f172a" stroke-opacity=".12" stroke-width="3"/></svg>