<svg xmlns="http://www.w3.org/2000/svg" viewBox="0 0 600 600" width="600" height="600"><defs><linearGradient id="bg" x1="0" y1="0" x2="1" y2="1"><stop offset="0" stop-color="#ecfdf5"/><stop offset="1" stop-color="#d1fae5"/></linearGradient></defs><rect width="600" height="600" fill="url(#bg)"/><ellipse cx="300" cy="528" rx="150" ry="16" fill="#0f172a" opacity=".12"/><rect x="158" y="295" width="104" height="210" rx="16" fill="#1e293b"/><rect x="158" y="281" width="104" height="26" rx="10" fill="#dc2626"/><rect x="170" y="370" width="80" height="60" rx="8" fill="#fff" opacity=".95"/><text x="210" y="406" font-family="Arial,Helvetica,sans-serif" font-weight="800" font-size="20" text-anchor="middle" fill="#0f172a">TENNIS</text><rect x="170" y="305" width="10" height="190" rx="5" fill="#fff" opacity=".12"/><circle cx="400" cy="470" r="52" fill="#d9f24b"/><path d="M363 434 C395 457 395 483 363 506" fill="none" stroke="#fff" stroke-width="4" stroke-linecap="round"/><path d="M437 434 C405 457 405 483 437 506" fill="none" stroke="#fff" stroke-width="4" stroke-linecap="round"/><circle cx="400" cy="470" r="52" fill="none" stroke="#0f172a" stroke-opacity=".12" stroke-width="3"/><circle cx="470" cy="505" r="40" fill="#d9f24b"/><path d="M441 477 C466 495 466 515 441 533" fill="none" stroke="#fff" stroke-width="3" stroke-linecap="round"/><path d="M499 477 C474 495 474 515 499 533" fill="none" stroke="#fff" stroke-width="3" stroke-linecap="round"/><circle cx="470" cy="505" r="40" fill="none" stroke="#0f172a" stroke-opacity=".12" stroke-width="3"/><circle cx="345" cy="505" r="36" fill="#d9f24b"/><path d="M319 480 C341 496 341 514 319 530" fill="none" stroke="#fff" stroke-width="3" stroke-linecap="round"/><path d="M371 480 C349 496 349 514 371 530" fill="none" stroke="#fff" stroke-width="3" stroke-linecap="round"/><circle cx="345" cy="505" r="36" fill="none" stroke="#0f172a" stroke-opacity=".12" stroke-width="3"/></svg>